<?xml version="1.0" encoding="utf-8"?>
<!-- Generator: Adobe Illustrator 19.0.0, SVG Export Plug-In . SVG Version: 6.00 Build 0)  -->
<svg version="1.1" id="Layer_1" xmlns="http://www.w3.org/2000/svg" xmlns:xlink="http://www.w3.org/1999/xlink" x="0px" y="0px"
	 viewBox="0 0 740 740" style="enable-background:new 0 0 740 740;" xml:space="preserve">
<style type="text/css">
	.st0{fill:none;stroke:#000000;stroke-width:8;stroke-miterlimit:10;}
</style>
<g id="XMLID_30_">
	<g id="XMLID_7_">
		<g id="XMLID_25_">
			<path id="XMLID_97_" d="M389.9,202.3c0,0-0.4-0.7-1.2-2.1c-0.7-1.4-1.9-3.3-3.2-5.9c-1.4-2.5-3-5.6-4.8-9.2
				c-1.8-3.6-3.8-7.7-5.9-12.2c-2.1-4.5-4.3-9.4-6.5-14.7c-2.2-5.3-4.4-10.9-6.1-17.1c-0.4-1.6-0.9-3.1-1.2-4.9
				c-0.2-0.9-0.3-1.7-0.4-2.7c-0.1-1-0.1-2,0.2-3.5c0.1-0.4,0.3-0.9,0.3-1c0-0.1,0,0,0,0l0,0.1l0,0.1c0,0.1,0,0.2,0,0.2
				c0,0.1-0.1,0.5,0,0.7c0.2,0.5-0.2,1.4,1.8,2.9c2.7,1.1,2.7,0.2,3.5,0.1c0.2-0.1,0.5-0.3,0.6-0.4c0.1-0.1,0.3-0.2,0.3-0.2l0,0l0,0
				c0,0,0,0,0,0L367,133c-0.3,0.5-0.7,1.1-1.1,1.8c-0.8,1.3-1.5,2.7-2.2,4c-2.8,5.6-5.4,11.5-7.6,17.5c-2.3,6-4.1,12.2-5.7,18.3
				c-0.8,3.1-1.5,6.1-2,9.2c-0.6,3-1.1,6.1-1.5,9c-1.6,11.9-1.5,23.2-0.4,32.8c0.6,4.8,1.4,9.2,2.4,13c1,3.8,2,7.2,2.9,9.9
				c0.9,2.7,1.7,4.8,2.3,6.3c0.6,1.4,0.9,2.2,0.9,2.2s-0.5-0.7-1.3-2c-0.8-1.3-2-3.2-3.4-5.8c-1.4-2.6-2.9-5.8-4.4-9.6
				c-1.5-3.8-2.9-8.2-4-13.1c-1.1-4.9-2-10.4-2.4-16.1c-0.4-5.8-0.4-11.9,0.2-18.2c0.5-6.3,1.5-12.8,3-19.3
				c1.5-6.5,3.4-12.9,5.7-19.3c2.4-6.3,5.1-12.5,8.3-18.4c0.8-1.5,1.6-2.9,2.5-4.4c0.5-0.7,0.9-1.4,1.5-2.2c0.2-0.2,0.3-0.4,0.5-0.7
				l0.2-0.2l0.1-0.1l0.2-0.2c0.1-0.1,0.3-0.3,0.5-0.4c0.1-0.1,0.5-0.3,0.7-0.4c0.9-0.1,0.9-1,3.6,0.1c2.1,1.5,1.6,2.5,1.9,3
				c0,0.3,0,0.7,0,0.8c0,0.3-0.1,0.5-0.1,0.6c0,0.1-0.1,0.3-0.1,0.4l-0.1,0.3c-0.1,0.3,0,0.2-0.1,0.1c0,0.1-0.1,0.7-0.1,1.2
				c0,0.6,0.1,1.3,0.2,2c0.2,1.4,0.5,2.8,0.8,4.3c1.4,5.8,3.2,11.4,4.9,16.7c1.8,5.3,3.5,10.4,5.1,15c3.3,9.3,6,17.1,7.9,22.5
				c1,2.7,1.7,4.9,2.2,6.3C389.6,201.5,389.9,202.3,389.9,202.3z"/>
		</g>
		<g id="XMLID_28_">
			<path id="XMLID_95_" d="M395.1,261.7c0-1.6,0.1-3.2,0.2-4.8c0.1-1.6,0.2-3.2,0.3-4.7l0.4-4.7l0.4-4.7l0.5-4.7l0.5-4.6l1-9.2
				l0.5-4.6c0.2-1.5,0.3-3.1,0.5-4.6c0.2-1.5,0.3-3,0.4-4.6c0.1-1.5,0.3-3,0.4-4.5c0.1-1.5,0.2-3,0.2-4.5c0-1.5,0.1-2.9,0-4.4
				c-0.1-1.4-0.2-2.8-0.5-4c-0.2-1.2-0.7-2.3-1-2.7l2.3,0.4c0.1-0.1-0.1,0-0.2,0c-0.1,0-0.2,0.1-0.4,0.1c-0.3,0.1-0.5,0.2-0.8,0.4
				c-0.5,0.3-1.1,0.6-1.6,1c-0.5,0.4-1,0.8-1.6,1.3c-0.5,0.5-1,1-1.5,1.5c-0.2,0.3-0.5,0.5-0.7,0.8l-0.7,0.8
				c-0.5,0.6-0.9,1.2-1.4,1.7c-0.4,0.6-0.8,1.2-1.3,1.8c-0.4,0.6-0.8,1.3-1.2,1.9c0.1-0.8,0.2-1.5,0.4-2.3c0.2-0.8,0.4-1.5,0.6-2.3
				c0.2-0.7,0.5-1.5,0.7-2.2l0.4-1.1c0.1-0.4,0.3-0.7,0.5-1.1c0.3-0.7,0.8-1.4,1.2-2.1c0.4-0.7,0.9-1.4,1.5-2
				c0.6-0.6,1.1-1.3,1.8-1.9c0.3-0.3,0.7-0.6,1.1-0.8c0.2-0.1,0.4-0.3,0.6-0.4c0.3-0.1,0.4-0.2,0.9-0.4l1.1-0.4l1.3,0.8
				c1.1,0.7,1.8,1.6,2.4,2.5c0.6,0.9,1,1.8,1.3,2.7c0.7,1.8,1.1,3.5,1.4,5.1c0.3,1.7,0.5,3.3,0.6,5c0.1,1.6,0.2,3.3,0.1,4.9
				c0,3.2-0.2,6.4-0.5,9.6c-0.2,1.6-0.4,3.2-0.6,4.7c-0.2,1.6-0.5,3.1-0.7,4.7c-0.2,1.6-0.6,3.1-0.9,4.7c-0.3,1.6-0.6,3.1-1,4.6
				c-0.3,1.5-0.7,3.1-1.1,4.6c-0.4,1.5-0.8,3-1.3,4.6c-0.5,1.5-0.9,3-1.4,4.5c-0.5,1.5-1,3-1.5,4.5c-0.5,1.5-1.1,3-1.7,4.4
				C396.5,258.8,395.8,260.3,395.1,261.7z"/>
		</g>
		<g id="XMLID_31_">
			<path id="XMLID_93_" d="M400.4,160.4c0,0,0.3-0.9,0.8-2.7c0.5-1.8,1.3-4.3,2.1-7.6c0.9-3.3,1.8-7.3,2.7-11.9
				c0.9-4.6,1.7-9.9,2.2-15.6c0.4-5.7,0.5-11.9-0.6-18.2c-0.2-0.8-0.3-1.6-0.5-2.3c-0.2-0.8-0.4-1.5-0.6-2.3
				c-0.2-0.8-0.5-1.5-0.7-2.3c-0.1-0.4-0.3-0.9-0.4-1.4c-0.1-0.5-0.3-1-0.4-1.8c0-0.1,0-0.2,0-0.3l0-0.5c0-0.2,0-0.5,0.1-0.8
				c0.1-0.2,0.2-0.5,0.3-0.8c0.1-0.2,0.3-0.7,0.9-1.1c0.5-0.4,1.1-0.7,1.8-0.8c0.8-0.1,1.2,0.1,1.4,0.1c0.3,0.1,0.7,0.3,0.8,0.3
				c0.1,0.1,0.3,0.2,0.4,0.2c0.1,0.1,0.2,0.2,0.3,0.2l0.2,0.2c0.1,0.1,0.2,0.2,0.3,0.3c0.6,0.7,0.8,1.1,1.2,1.5
				c0.6,0.9,1,1.7,1.5,2.6c0.9,1.7,1.7,3.4,2.5,5.1c1.6,3.4,3,7,4.3,10.6c1.3,3.6,2.5,7.3,3.6,11.1c2.2,7.5,4,15.3,5.3,23.1
				c1.3,7.9,2.1,15.8,2.4,23.7c0.3,7.9-0.1,15.6-1,23.1c-0.9,7.4-2.4,14.6-4.4,21.2c-2,6.6-4.5,12.6-7.2,17.9
				c-2.7,5.3-5.7,10-8.6,13.8c-2.9,3.9-5.7,7-8.1,9.5c-2.4,2.5-4.4,4.3-5.8,5.5c-1.4,1.2-2.2,1.8-2.2,1.8s0.6-0.7,1.8-2.1
				c1.2-1.4,2.9-3.5,4.9-6.2c2-2.7,4.3-6.1,6.7-10.2c2.4-4.1,4.8-8.8,7-14.1c2.2-5.3,4.1-11.2,5.6-17.6c1.5-6.4,2.6-13.2,3.2-20.3
				c0.6-7.1,0.7-14.5,0.3-22c-0.4-7.5-1.2-15.1-2.5-22.7c-1.2-7.6-2.9-15-4.9-22.3c-2-7.3-4.3-14.4-7-21c-0.7-1.6-1.4-3.3-2.1-4.8
				c-0.4-0.7-0.8-1.5-1.1-2.1l-0.3-0.4c-0.1-0.1-0.2-0.2-0.1-0.2c0,0,0,0,0.1,0l0.1,0.1l0.1,0.1c0.1,0.1,0.2,0.1,0.2,0.1
				c0,0,0.4,0.2,0.6,0.3c0.2,0,0.5,0.2,1.3,0.1c0.7-0.1,1.2-0.3,1.7-0.7c0.5-0.4,0.8-0.9,0.8-1c0.1-0.2,0.2-0.5,0.2-0.6
				c0-0.1,0.1-0.3,0.1-0.4c0,0,0-0.1,0-0.1c0,0,0,0,0,0c0.1,0.8,0.7,2.8,1.1,4.6c0.2,0.9,0.3,1.8,0.5,2.7c0.1,0.9,0.2,1.8,0.3,2.7
				c0.7,7.1,0.1,13.6-0.9,19.5c-1,5.9-2.4,11.2-3.8,15.8c-1.4,4.6-2.9,8.5-4.2,11.7c-1.3,3.2-2.4,5.6-3.2,7.3
				C400.9,159.5,400.4,160.4,400.4,160.4z"/>
		</g>
		<g id="XMLID_10_">
			<path id="XMLID_90_" d="M355,257c-2.2-1.7-4.4-3.6-6.5-5.5c-2.1-1.9-4.1-3.9-6.1-6c-3.9-4.1-7.6-8.4-11-13
				c-3.4-4.6-6.5-9.3-9.4-14.3c-2.8-5-5.3-10.2-7.3-15.6c-2-5.4-3.6-11-4.7-16.7c-0.2-1.4-0.5-2.9-0.7-4.3l-0.5-4.3
				c-0.2-2.9-0.4-5.8-0.4-8.7c-0.1-2.9,0.2-5.8,0.4-8.7c0.4-2.9,0.6-5.8,1.3-8.7l0.4-2.2l0.1-0.5l0.1-0.3l0.1-0.3l0.3-1l1-4.1
				c0.4-1.4,0.8-2.8,1.2-4.2c0.4-1.4,0.8-2.8,1.3-4.2l1.4-4.1l1.5-4c0.5-1.4,1-2.7,1.5-4l1.6-4c2.3-5.3,4.6-10.5,7.2-15.6
				c2.6-5.1,5.3-10.1,8.2-15c2.8-5,5.8-9.8,8.9-14.6c3.1-4.8,6.3-9.5,9.6-14.1c3.3-4.6,6.7-9.2,10.1-13.7c3.5-4.5,7-9,10.6-13.4
				c3.6-4.4,7.3-8.7,11.3-12.9l11.2-12.2l-5,15.7c-0.9,2.8-1.7,5.7-2.5,8.6c-0.8,2.9-1.5,5.8-2.2,8.8c-1.4,5.9-2.7,11.8-3.8,17.8
				c-1.1,5.9-2.1,11.9-2.8,17.9c-0.7,6-1.2,12-1.5,18.1c-0.3,6-0.3,12.1,0.2,18.1c0.2,3,0.5,6,0.9,9c0.4,3,1,5.9,1.7,8.9
				c0.7,2.9,1.6,5.8,2.6,8.6c1,2.8,2.3,5.6,3.7,8.2c1.5,2.6,3.2,5.1,5.1,7.5c1.9,2.3,4.1,4.5,6.5,6.4c-5.1-3.4-9.5-7.9-12.9-13.1
				c-3.5-5.2-6-10.9-7.8-16.9c-0.9-3-1.7-6-2.3-9c-0.6-3-1.2-6.1-1.5-9.2c-0.8-6.2-1.1-12.4-1.1-18.6c0-3.1,0-6.2,0.2-9.3
				c0.1-3.1,0.4-6.2,0.6-9.3c0.5-6.2,1.3-12.3,2.2-18.4c0.9-6.1,2-12.2,3.4-18.2c0.7-3,1.4-6,2.1-9c0.8-3,1.5-6,2.4-9l6.2,3.6
				c-3.6,4.1-7.2,8.5-10.7,12.8c-3.5,4.3-7,8.7-10.3,13.2c-3.4,4.5-6.7,9-9.9,13.6c-3.2,4.6-6.3,9.2-9.4,13.9c-3,4.7-6,9.4-8.8,14.2
				c-2.8,4.8-5.5,9.7-8.1,14.6l-1.9,3.7l-1.8,3.7c-1.3,2.5-2.4,5-3.5,7.5l-1.6,3.8c-0.6,1.3-1.1,2.6-1.6,3.8l-1.5,3.9l-1.4,3.9
				c-0.5,1.3-0.9,2.6-1.3,3.9c-0.4,1.3-0.8,2.6-1.2,3.9l-1.1,4.1l-0.3,1l0,0.1l0,0.1c0,0.1,0,0,0,0l-0.1,0.2l-0.1,0.5l-0.4,2
				c-0.7,2.6-1,5.3-1.5,8c-0.3,2.7-0.6,5.4-0.6,8.1c-0.2,2.7,0,5.4,0.1,8.2l0.3,4.1c0.1,1.4,0.4,2.7,0.5,4.1c0.8,5.4,2,10.8,3.7,16
				c1.7,5.3,3.8,10.4,6.3,15.4c2.4,5,5.2,9.9,8.2,14.5c3.1,4.7,6.3,9.2,9.9,13.6C347.1,248.9,350.9,253.1,355,257z"/>
		</g>
	</g>
	<g id="XMLID_1_">
		<path id="XMLID_21_" class="st0" d="M301.8,267.8h136.3c0,0,5.7,38-21.2,52.1h-91.5C325.5,320,297.2,301.8,301.8,267.8z"/>
		<rect id="XMLID_12_" x="327.7" y="332.2" class="st0" width="84.7" height="18.6"/>
		<polygon id="XMLID_22_" class="st0" points="340.1,363 399.9,363 370.7,495.9 		"/>
	</g>
	<g id="XMLID_29_">
		<g id="XMLID_2_">
			<g id="XMLID_3_">
				<g id="XMLID_4_">
					<g id="XMLID_5_">
						<path id="XMLID_61_" d="M294.8,592l4.2-10.3l4.2-10.2c2.8-6.8,5.6-13.7,8.5-20.4l0.7-0.8c-0.2,0.1-0.1,0-0.1,0l0.1-0.1
							c0.1-0.1,0.1-0.2,0.2-0.3c0.1-0.2,0.3-0.4,0.4-0.7c0.2-0.5,0.4-1.1,0.5-1.7c0.3-1.2,0.4-2.6,0.3-4c-0.1-2.8-0.5-5.6-1.2-8.5
							c-1.4-5.7-3.5-11.2-5.9-16.6c-2.4-5.4-5.2-10.7-8.1-16l-8.7-15.9c-5.8-10.6-11.6-21.2-17.3-32c-2.8-5.4-5.6-10.8-8.1-16.5
							c-1.3-2.9-2.5-5.7-3.4-9c-0.2-0.8-0.4-1.7-0.6-2.7c-0.1-0.5-0.1-1-0.1-1.6c0-0.6,0.1-1.5,0.2-1.7c0.1-0.4,0.1-0.6,0.1-0.9
							l0.1-1l0.1-2.2c0.3-5.9,0.3-11.9,0.3-17.9c0-6-0.1-12-0.2-18c-0.1-6-0.2-12-0.5-18c-0.2-6-0.4-12-0.7-18c-0.3-6-0.7-12-1.2-18
							c-0.5-6-1.1-12-1.8-17.9c-0.8-5.9-1.7-11.8-3-17.6c-0.7-2.9-1.4-5.7-2.4-8.5c-1-2.7-2.2-5.4-3.8-7.6l-1.8-2.3l2.7-0.1
							c0.9,0,1.7,0,2.5,0.1c0.8,0.1,1.6,0.2,2.4,0.3c1.6,0.3,3.1,0.7,4.6,1.3c3,1.1,5.7,2.6,8.2,4.5c2.5,1.9,4.7,4.1,6.6,6.5
							c0.5,0.6,0.9,1.2,1.4,1.8c0.5,0.6,0.9,1.3,1.3,1.9c0.4,0.6,0.8,1.3,1.2,2l1.1,2l-0.7,0.4l-1.2-1.9c-0.4-0.6-0.8-1.2-1.3-1.9
							c-0.5-0.6-0.9-1.2-1.4-1.8c-0.5-0.6-0.9-1.2-1.5-1.7c-1-1.1-2.1-2.1-3.2-3.1c-0.6-0.5-1.1-1-1.7-1.4c-0.6-0.5-1.2-0.9-1.8-1.3
							c-2.5-1.6-5.1-2.9-7.9-3.8c-1.4-0.4-2.8-0.7-4.2-1c-0.7-0.1-1.4-0.2-2.1-0.2c-0.7,0-1.5,0-2,0l0.9-2.4
							c2.3,2.4,3.8,5.3,5.1,8.1c1.3,2.9,2.3,5.8,3.2,8.7c1.9,5.9,3.2,11.9,4.3,17.9c1.2,6,2.1,12,2.9,18.1c0.8,6,1.5,12.1,2,18.2
							c0.5,6.1,1,12.1,1.3,18.2c0.3,6.1,0.6,12.1,0.8,18.2c0.1,6.1,0.2,12.2,0.2,18.2c-0.1,6.1-0.2,12.2-0.6,18.4
							c-0.1,0.8-0.1,1.6-0.2,2.4l-0.1,1.2c-0.1,0.4-0.1,1-0.2,1.3c-0.1,0.5-0.1,0.3-0.1,0.5c0,0.1,0,0.4,0,0.6
							c0,0.5,0.2,1.1,0.3,1.7c0.6,2.5,1.7,5.3,2.8,8c2.2,5.5,4.8,10.9,7.5,16.3c5.3,10.8,10.9,21.5,16.5,32.3l8.3,16.1
							c2.8,5.4,5.5,10.9,7.9,16.6c2.4,5.7,4.5,11.5,5.8,17.6c0.7,3.1,1.1,6.2,1.1,9.5c0,1.6-0.2,3.3-0.6,5c-0.2,0.9-0.5,1.7-0.9,2.6
							c-0.2,0.4-0.4,0.9-0.7,1.3c-0.1,0.2-0.3,0.4-0.5,0.6c-0.1,0.1-0.2,0.2-0.3,0.3c-0.1,0.1-0.2,0.2-0.5,0.4l0.7-0.8
							c-3.3,6.6-6.7,13.2-10,19.7l-5,9.9l-5.1,9.8L294.8,592z"/>
					</g>
					<g id="XMLID_13_">
						<path id="XMLID_70_" d="M352.2,602.5l1.7-44.4l1.8-44.4l0,0.5c-0.7-2.8-1.4-5.6-2.2-8.4c-0.8-2.8-1.6-5.6-2.4-8.3
							c-1.7-5.5-3.5-11-5.4-16.5c-2-5.4-4-10.8-6.4-16.1c-2.3-5.3-4.9-10.4-7.8-15.3c-1.5-2.4-3-4.7-4.7-7c-1.7-2.3-3.5-4.9-5.1-7.4
							c-1.6-2.5-3-5.2-4.4-7.8c-1.4-2.7-2.6-5.4-3.8-8.1c-2.3-5.5-4.3-11.1-6-16.8c-0.8-2.8-1.6-5.7-2.3-8.6
							c-0.7-2.9-1.3-5.8-1.8-8.8l0.1,0.3l-10.8-44.9l0.1,0.4l-1.5-4.1l-1.5-4.1c-1-2.8-2.1-5.5-3.2-8.2c-2.2-5.5-4.6-10.8-7.1-16.1
							c-1.3-2.6-2.6-5.2-4-7.7c-1.4-2.5-2.8-5-4.4-7.3c-1.6-2.3-3.3-4.4-5.1-5.9c-0.9-0.7-1.8-1.3-2.4-1.5c-0.6-0.2-0.8-0.2-1.3,0.1
							l1.7-4.9c0.9,2.4,1.8,4.7,2.6,7.1c0.8,2.4,1.6,4.7,2.2,7.2l1,3.6l0.9,3.6c0.3,1.2,0.6,2.4,0.9,3.6l0.8,3.6
							c0.5,2.4,0.9,4.9,1.4,7.3c0.5,2.4,0.8,4.9,1.2,7.3c0.4,2.4,0.7,4.9,1,7.3c0.3,2.4,0.5,4.9,0.8,7.3c0.3,2.4,0.5,4.9,0.7,7.3
							c0.2,2.4,0.4,4.9,0.5,7.3c0.2,2.4,0.3,4.9,0.4,7.3c0.1,2.4,0.2,4.9,0.3,7.3c0.1,2.4,0.1,4.9,0.2,7.3c0,2.4,0.1,4.9,0.1,7.3
							c0,2.4,0,4.9,0,7.3l-0.1,7.3l-0.8,0l-1.3-14.6l-0.7-7.3c-0.2-2.4-0.5-4.9-0.8-7.3c-0.3-2.4-0.5-4.8-0.8-7.3
							c-0.3-2.4-0.6-4.8-0.9-7.2c-0.3-2.4-0.6-4.8-1-7.2c-0.3-2.4-0.7-4.8-1.1-7.2c-0.4-2.4-0.7-4.8-1.2-7.2
							c-0.4-2.4-0.8-4.8-1.3-7.1c-0.5-2.4-0.9-4.7-1.5-7.1c-0.5-2.4-1-4.7-1.6-7l-0.9-3.5c-0.3-1.2-0.7-2.3-1-3.5l-1-3.5l-1.1-3.4
							c-0.7-2.3-1.5-4.5-2.3-6.8c-0.8-2.2-1.8-4.4-2.6-6.6l-1.2-3.2l2.9-1.7c1-0.6,2.3-1.1,3.6-1.2c1.3-0.2,2.6,0,3.7,0.3
							c2.3,0.6,3.9,1.8,5.3,2.9c1.4,1.2,2.6,2.4,3.7,3.6c1.1,1.3,2.1,2.5,3,3.8c3.7,5.2,6.5,10.6,9.2,16.1c2.7,5.5,5,11.1,7.2,16.7
							c1.1,2.8,2.1,5.6,3.2,8.5l1.5,4.3c0.5,1.4,1,2.8,1.4,4.3l0.1,0.2l0,0.1l9.6,45.2l0,0.2l0,0.1c0.4,2.7,0.9,5.6,1.5,8.3
							c0.6,2.8,1.3,5.6,2,8.3c1.5,5.5,3.3,10.9,5.4,16.2c1.1,2.6,2.2,5.2,3.4,7.8c1.2,2.6,2.6,5.1,4,7.5c1.5,2.5,2.9,4.7,4.7,7.1
							c1.7,2.4,3.4,5,4.9,7.6c3,5.2,5.5,10.6,7.8,16c2.3,5.4,4.3,11,6.2,16.5c1.9,5.6,3.6,11.2,5.2,16.8c0.8,2.8,1.5,5.7,2.3,8.5
							c0.7,2.8,1.4,5.7,2,8.6l0.1,0.3l0,0.3l-3.3,44.3l-3.4,44.3L352.2,602.5z"/>
					</g>
					<g id="XMLID_14_">
						<path id="XMLID_83_" d="M293.1,395.4c0,0-1-5.6-2.6-14c-0.8-4.2-1.7-9.1-2.7-14.3c-0.5-2.6-1.1-5.3-1.6-8
							c-0.6-2.7-1.1-5.5-1.8-8.2l-0.5-2c-0.2-0.6-0.4-1.3-0.6-1.9c-0.4-1.2-0.9-2.7-1.4-3.9c-0.9-2.6-1.9-5.2-2.7-7.7
							c-0.8-2.5-1.4-5-1.9-7.4c-0.5-2.4-1-4.7-1.3-6.8c-0.4-2.1-0.6-4.1-0.8-5.8c-0.2-1.7-0.3-3.3-0.4-4.5c-0.1-1.3-0.1-2.3-0.1-3
							c0-0.7,0-1.1,0-1.1l0.8-0.2c0,0,0.2,0.3,0.6,0.9c0.4,0.6,0.9,1.4,1.5,2.5c0.6,1.1,1.4,2.5,2.2,4c0.8,1.6,1.6,3.4,2.5,5.3
							c0.9,2,1.7,4.1,2.6,6.4c0.9,2.3,1.7,4.7,2.4,7.3c0.7,2.6,1.3,5.3,1.8,8.1c0.3,1.4,0.5,2.7,0.8,4.2l0.4,2.2l0.3,2.2
							c0.4,2.9,0.8,5.7,1.1,8.5c0.3,2.8,0.5,5.6,0.7,8.2c0.2,2.7,0.4,5.2,0.5,7.7c0.1,2.4,0.3,4.8,0.4,6.9c0.2,4.3,0.4,7.8,0.5,10.3
							c0.1,2.5,0.1,3.9,0.1,3.9L293.1,395.4z"/>
					</g>
					<g id="XMLID_15_">
						<path id="XMLID_81_" d="M268,307.7c0,0,0.7-0.7,1.8-1.7c0.6-0.5,1.2-1,1.9-1.6c0.7-0.6,1.5-1.1,2.3-1.7
							c0.8-0.5,1.4-1.5,2.2-1.8c0.4-0.2,0.8-0.2,1.3-0.1c0.4,0,0.8,0.1,1.3,0.3c0.4,0.1,0.8,0.3,1.2,0.5c0.2,0.1,0.4,0.2,0.5,0.3
							c0.2,0.1,0.3,0.2,0.5,0.3c0.3,0.2,0.5,0.4,0.7,0.5c0.2,0.2,0.3,0.2,0.3,0.2l0.3,0.8c0,0,0,0.1-0.1,0.3c0,0.2-0.1,0.5-0.2,0.8
							c0,0.2-0.1,0.4-0.2,0.6c-0.1,0.2-0.1,0.4-0.2,0.6c-0.2,0.4-0.4,0.8-0.6,1.1c-0.2,0.4-0.5,0.7-0.8,1c-0.3,0.3-0.7,0.5-1.1,0.7
							c-0.8,0.2-1.9-0.1-2.8-0.1c-0.9,0-1.9,0.1-2.8,0c-0.9,0-1.8-0.1-2.5-0.1c-1.5-0.1-2.5-0.3-2.5-0.3L268,307.7z"/>
					</g>
				</g>
				<g id="XMLID_16_">
					<g id="XMLID_18_">
						<path id="XMLID_79_" d="M309.1,545.6c0,0,0-0.1,0.1-0.2c0.1-0.1,0.5-0.1,0.7,0.1c0.5,0.3,1.1,1,1.7,1.8c1.2,1.7,2.6,4.2,4.3,7
							c1.7,2.8,3.7,6.1,6.2,8.9c0.6,0.7,1.3,1.4,1.9,2c0.7,0.6,1.4,1.2,2.1,1.7c1.4,1,3,1.7,4.6,2c1.6,0.4,3.3,0.4,5.1,0.2
							c1.8-0.2,3.6-0.7,5.4-1.3c1.8-0.6,3.5-1.4,5.2-2.1c1.6-0.8,3.2-1.6,4.7-2.4c1.5-0.8,2.8-1.5,4-2.2c1.2-0.7,2.3-1.3,3.1-1.7
							c1.8-1,2.8-1.5,2.8-1.5s-0.2,0.2-0.4,0.7c-0.3,0.5-0.7,1.2-1.3,2c-1.2,1.7-2.9,4-5.4,6.4c-1.2,1.3-2.7,2.5-4.3,3.8
							c-1.6,1.2-3.5,2.5-5.5,3.5c-2.1,1.1-4.4,2-7,2.5c-2.6,0.5-5.4,0.5-8.2-0.1c-2.8-0.6-5.4-2-7.4-3.6c-2.1-1.7-3.7-3.6-5-5.6
							c-2.6-4-3.9-8-4.7-11.3c-0.9-3.4-1.2-6.2-1.5-8.2c-0.2-1-0.3-1.7-0.5-2.1c-0.1-0.2-0.2-0.3-0.4-0.3
							C309.1,545.6,309.1,545.6,309.1,545.6z"/>
					</g>
					<g id="XMLID_19_">
						<path id="XMLID_76_" d="M300.8,564.1c0,0,0.2,0.3,0.5,0.7c0.3,0.5,0.8,1.2,1.4,2c1.2,1.7,2.9,4.2,5.2,6.8
							c1.1,1.3,2.4,2.7,3.7,4c1.4,1.3,2.9,2.6,4.5,3.8c1.6,1.1,3.4,2.2,5.2,3c0.5,0.2,0.9,0.4,1.4,0.6l0.7,0.3l0.7,0.2
							c0.5,0.1,1,0.3,1.4,0.4l1.5,0.3c0.5,0.1,1,0.2,1.5,0.2c0.5,0,1,0.1,1.5,0.1c0.5,0,1,0,1.5,0l0.8,0l0.8-0.1
							c1-0.1,2.1-0.1,3.1-0.3c0.5-0.1,1-0.2,1.5-0.2c0.5-0.1,1-0.2,1.5-0.3c0.5-0.1,1-0.2,1.5-0.3c0.5-0.1,1-0.3,1.5-0.4
							c1-0.3,1.9-0.5,2.8-0.9c0.9-0.3,1.8-0.6,2.7-1c0.9-0.3,1.7-0.7,2.5-1c1.7-0.6,3.1-1.3,4.5-1.9c0.7-0.3,1.3-0.6,1.9-0.8
							c0.6-0.3,1.1-0.5,1.6-0.7c1.9-0.9,3.1-1.3,3.1-1.3s-0.7,1-2.2,2.6c-0.4,0.4-0.8,0.9-1.2,1.3c-0.4,0.5-1,0.9-1.5,1.5
							c-1.1,1-2.3,2.2-3.8,3.3c-0.7,0.6-1.5,1.2-2.4,1.8c-0.9,0.5-1.8,1.1-2.7,1.7c-0.9,0.6-2,1-3,1.6c-0.5,0.3-1,0.5-1.6,0.8
							c-0.6,0.2-1.1,0.4-1.7,0.6c-0.6,0.2-1.2,0.4-1.7,0.6c-0.6,0.2-1.2,0.3-1.8,0.5c-0.6,0.1-1.2,0.3-1.9,0.4
							c-0.7,0.1-1.3,0.2-2,0.3l-1,0.1l-1,0c-0.7,0-1.4,0-2,0c-0.7,0-1.4-0.1-2.1-0.1c-0.7-0.1-1.4-0.1-2.1-0.3
							c-2.7-0.5-5.4-1.4-7.8-2.7c-0.6-0.3-1.2-0.7-1.8-1c-0.6-0.3-1.1-0.8-1.6-1.1c-1.1-0.7-2-1.6-3-2.4c-1.8-1.7-3.3-3.6-4.6-5.4
							c-1.2-1.9-2.2-3.7-3-5.4c-0.8-1.7-1.4-3.4-1.8-4.8c-0.4-1.5-0.7-2.8-0.9-3.8C300.8,565.4,300.8,564.1,300.8,564.1z"/>
					</g>
				</g>
			</g>
		</g>
		<g id="XMLID_17_">
			<g id="XMLID_20_">
				<g id="XMLID_54_">
					<g id="XMLID_85_">
						<path id="XMLID_88_" d="M444.4,592.4l-5.1-9.8l-5-9.9c-3.3-6.6-6.8-13.1-10-19.7l0.7,0.8c-0.3-0.2-0.3-0.3-0.5-0.4
							c-0.1-0.1-0.2-0.2-0.3-0.3c-0.2-0.2-0.3-0.4-0.5-0.6c-0.3-0.4-0.5-0.9-0.7-1.3c-0.4-0.9-0.7-1.7-0.9-2.6
							c-0.4-1.7-0.6-3.4-0.6-5c0-3.3,0.4-6.4,1.1-9.5c1.3-6.1,3.5-12,5.8-17.6c2.4-5.7,5.1-11.2,7.9-16.6l8.3-16.1
							c5.6-10.7,11.2-21.5,16.5-32.3c2.6-5.4,5.2-10.8,7.5-16.3c1.1-2.7,2.1-5.5,2.8-8c0.1-0.6,0.3-1.2,0.3-1.7c0-0.3,0-0.5,0-0.6
							c0-0.2,0,0-0.1-0.5c-0.1-0.3-0.1-0.9-0.2-1.3l-0.1-1.2c-0.1-0.8-0.2-1.6-0.2-2.4c-0.4-6.2-0.6-12.3-0.6-18.4
							c-0.1-6.1,0-12.2,0.2-18.2c0.1-6.1,0.4-12.2,0.8-18.2c0.4-6.1,0.8-12.1,1.3-18.2c0.5-6.1,1.2-12.1,2-18.2
							c0.8-6,1.7-12.1,2.9-18.1c1.2-6,2.5-12,4.3-17.9c0.9-2.9,2-5.9,3.2-8.7c1.3-2.8,2.8-5.7,5.1-8.1l0.9,2.4c-0.6-0.1-1.4,0-2,0
							c-0.7,0-1.4,0.1-2.1,0.2c-1.4,0.2-2.8,0.5-4.2,1c-2.8,0.9-5.4,2.2-7.9,3.8c-0.6,0.4-1.2,0.8-1.8,1.3c-0.6,0.4-1.1,0.9-1.7,1.4
							c-1.1,1-2.2,2-3.2,3.1c-0.5,0.5-1,1.1-1.5,1.7c-0.5,0.6-0.9,1.2-1.4,1.8c-0.4,0.6-0.9,1.2-1.3,1.9l-1.2,1.9l-0.7-0.4l1.1-2
							c0.4-0.7,0.8-1.3,1.2-2c0.4-0.6,0.8-1.3,1.3-1.9c0.4-0.6,0.9-1.3,1.4-1.8c1.9-2.4,4.1-4.6,6.6-6.5c2.5-1.9,5.3-3.4,8.2-4.5
							c1.5-0.5,3-1,4.6-1.3c0.8-0.1,1.6-0.3,2.4-0.3c0.8-0.1,1.6-0.1,2.5-0.1l2.7,0.1l-1.8,2.3c-1.7,2.1-2.9,4.8-3.8,7.6
							c-1,2.8-1.7,5.6-2.4,8.5c-1.3,5.8-2.3,11.7-3,17.6c-0.7,5.9-1.3,11.9-1.8,17.9c-0.5,6-0.8,12-1.2,18c-0.3,6-0.6,12-0.7,18
							c-0.2,6-0.3,12-0.5,18c-0.1,6-0.2,12-0.2,18c0,6,0,12,0.3,17.9l0.1,2.2l0.1,1c0,0.3,0,0.5,0.1,0.9c0,0.2,0.2,1.2,0.2,1.7
							c0,0.6,0,1.1-0.1,1.6c-0.1,1-0.3,1.9-0.6,2.7c-0.9,3.3-2.1,6.2-3.4,9c-2.5,5.7-5.3,11.1-8.1,16.5c-5.6,10.8-11.5,21.4-17.3,32
							l-8.7,15.9c-2.9,5.3-5.6,10.6-8.1,16c-2.4,5.4-4.6,11-5.9,16.6c-0.7,2.8-1.1,5.7-1.2,8.5c0,1.4,0.1,2.7,0.3,4
							c0.1,0.6,0.3,1.2,0.5,1.7c0.1,0.3,0.2,0.5,0.4,0.7c0.1,0.1,0.1,0.2,0.2,0.3l0.1,0.1c0,0,0.1,0.1-0.1,0l0.7,0.8
							c2.9,6.8,5.7,13.6,8.5,20.4l4.2,10.2l4.2,10.3L444.4,592.4z"/>
					</g>
					<g id="XMLID_73_">
						<path id="XMLID_84_" d="M387,602.6l-3.4-44.3l-3.3-44.3l0-0.3l0.1-0.3c0.6-2.9,1.3-5.7,2-8.6c0.7-2.8,1.5-5.7,2.3-8.5
							c1.6-5.6,3.3-11.2,5.2-16.8c1.9-5.6,3.9-11.1,6.2-16.5c2.3-5.4,4.8-10.8,7.8-16c1.5-2.6,3.1-5.2,4.9-7.6
							c1.8-2.4,3.2-4.6,4.7-7.1c1.4-2.4,2.8-4.9,4-7.5c1.2-2.6,2.4-5.2,3.4-7.8c2.1-5.3,3.9-10.7,5.4-16.2c0.8-2.8,1.4-5.5,2-8.3
							c0.6-2.8,1.1-5.6,1.5-8.3l0-0.1l0-0.2l9.6-45.2l0-0.1l0.1-0.2c0.5-1.5,0.9-2.9,1.4-4.3l1.5-4.3c1-2.8,2.1-5.7,3.2-8.5
							c2.2-5.6,4.5-11.2,7.2-16.7c2.7-5.5,5.5-10.9,9.2-16.1c0.9-1.3,1.9-2.6,3-3.8c1.1-1.3,2.3-2.5,3.7-3.6
							c1.4-1.1,3.1-2.3,5.3-2.9c1.1-0.3,2.4-0.4,3.7-0.3c1.3,0.2,2.6,0.6,3.6,1.2l2.9,1.7l-1.2,3.2c-0.9,2.2-1.8,4.4-2.6,6.6
							c-0.8,2.2-1.6,4.5-2.3,6.8l-1.1,3.4l-1,3.5c-0.3,1.2-0.7,2.3-1,3.5l-0.9,3.5c-0.6,2.3-1.1,4.7-1.6,7c-0.6,2.3-1,4.7-1.5,7.1
							c-0.5,2.4-0.9,4.8-1.3,7.1c-0.5,2.4-0.8,4.8-1.2,7.2c-0.4,2.4-0.7,4.8-1.1,7.2c-0.4,2.4-0.7,4.8-1,7.2
							c-0.3,2.4-0.6,4.8-0.9,7.2c-0.3,2.4-0.6,4.8-0.8,7.3c-0.3,2.4-0.5,4.8-0.8,7.3l-0.7,7.3l-1.3,14.6l-0.8,0l-0.1-7.3
							c0-2.4,0-4.9,0-7.3c0-2.4,0-4.9,0.1-7.3c0-2.4,0.1-4.9,0.2-7.3c0-2.5,0.2-4.9,0.3-7.3c0.1-2.4,0.2-4.9,0.4-7.3
							c0.2-2.4,0.3-4.9,0.5-7.3c0.2-2.4,0.4-4.9,0.7-7.3c0.3-2.4,0.5-4.9,0.8-7.3c0.3-2.4,0.6-4.9,1-7.3c0.4-2.4,0.7-4.9,1.2-7.3
							c0.4-2.4,0.8-4.9,1.4-7.3l0.8-3.6c0.3-1.2,0.6-2.4,0.9-3.6l0.9-3.6l1-3.6c0.6-2.4,1.5-4.8,2.2-7.2c0.8-2.4,1.7-4.7,2.6-7.1
							l1.7,4.9c-0.5-0.2-0.7-0.2-1.3-0.1c-0.6,0.2-1.5,0.7-2.4,1.5c-1.8,1.5-3.5,3.7-5.1,5.9c-1.6,2.3-3,4.8-4.4,7.3
							c-1.4,2.5-2.7,5.1-4,7.7c-2.5,5.3-4.9,10.7-7.1,16.1c-1.1,2.7-2.2,5.5-3.2,8.2l-1.5,4.1l-1.5,4.1l0.1-0.4l-10.8,44.9l0-0.3
							c-0.5,3.1-1.1,5.9-1.8,8.8c-0.7,2.9-1.5,5.8-2.3,8.6c-1.7,5.7-3.6,11.3-6,16.8c-1.2,2.7-2.4,5.4-3.8,8.1
							c-1.4,2.7-2.8,5.3-4.4,7.8c-1.6,2.5-3.3,5.1-5.1,7.4c-1.7,2.3-3.3,4.6-4.7,7c-2.9,4.9-5.5,10-7.8,15.3
							c-2.3,5.3-4.4,10.6-6.4,16.1c-1.9,5.4-3.7,10.9-5.4,16.5c-0.8,2.8-1.6,5.6-2.4,8.3c-0.8,2.8-1.5,5.6-2.2,8.4l0-0.5l1.8,44.4
							l1.7,44.4L387,602.6z"/>
					</g>
					<g id="XMLID_69_">
						<path id="XMLID_145_" d="M446.1,395.4c0,0,0-1.4,0.1-3.9c0.1-2.5,0.2-6,0.5-10.3c0.1-2.1,0.2-4.4,0.4-6.9
							c0.1-2.4,0.3-5,0.5-7.7c0.2-2.7,0.4-5.4,0.7-8.2c0.3-2.8,0.6-5.7,1.1-8.5l0.3-2.2l0.4-2.2c0.3-1.5,0.5-2.8,0.8-4.2
							c0.6-2.8,1.1-5.5,1.8-8.1c0.7-2.6,1.5-5,2.4-7.3c0.9-2.3,1.7-4.4,2.6-6.4c0.9-2,1.7-3.7,2.5-5.3c0.8-1.6,1.5-2.9,2.2-4
							c0.6-1.1,1.2-2,1.5-2.5c0.4-0.6,0.6-0.9,0.6-0.9l0.8,0.2c0,0,0,0.4,0,1.1c0,0.7,0,1.7-0.1,3c-0.1,1.3-0.2,2.8-0.4,4.5
							c-0.2,1.7-0.5,3.7-0.8,5.8c-0.4,2.1-0.8,4.4-1.3,6.8c-0.5,2.4-1.1,4.9-1.9,7.4c-0.8,2.5-1.7,5.1-2.7,7.7
							c-0.5,1.3-1,2.7-1.4,3.9c-0.2,0.6-0.4,1.3-0.6,1.9l-0.5,2c-0.7,2.7-1.2,5.4-1.8,8.2c-0.5,2.7-1.1,5.4-1.6,8
							c-1,5.2-1.9,10.1-2.7,14.3c-1.6,8.4-2.6,14-2.6,14L446.1,395.4z"/>
					</g>
					<g id="XMLID_57_">
						<path id="XMLID_147_" d="M471.8,308.5c0,0-1,0.2-2.5,0.3c-0.7,0-1.6,0.1-2.5,0.1c-0.9,0-1.9,0-2.8,0c-0.9-0.1-2,0.3-2.8,0.1
							c-0.4-0.1-0.8-0.4-1.1-0.7c-0.3-0.3-0.6-0.6-0.8-1c-0.2-0.4-0.4-0.8-0.6-1.1c-0.1-0.2-0.2-0.4-0.2-0.6
							c-0.1-0.2-0.1-0.4-0.2-0.6c-0.1-0.4-0.2-0.6-0.2-0.8c0-0.2-0.1-0.3-0.1-0.3l0.3-0.8c0,0,0.1-0.1,0.3-0.2
							c0.2-0.2,0.4-0.3,0.7-0.5c0.1-0.1,0.3-0.2,0.5-0.3c0.2-0.1,0.3-0.2,0.5-0.3c0.4-0.2,0.8-0.4,1.2-0.5c0.4-0.1,0.8-0.2,1.3-0.3
							c0.4-0.1,0.9,0,1.3,0.1c0.8,0.3,1.4,1.3,2.2,1.8c0.8,0.5,1.6,1.1,2.3,1.7c0.7,0.6,1.4,1.1,1.9,1.6c1.1,1,1.8,1.7,1.8,1.7
							L471.8,308.5z"/>
					</g>
				</g>
				<g id="XMLID_24_">
					<g id="XMLID_37_">
						<path id="XMLID_149_" d="M430.9,545.6c0,0-0.1,0-0.2-0.1c-0.1,0-0.2,0.1-0.4,0.3c-0.2,0.4-0.4,1.2-0.5,2.1
							c-0.3,1.9-0.7,4.8-1.5,8.2c-0.9,3.4-2.2,7.4-4.7,11.3c-1.3,2-2.9,4-5,5.6c-2.1,1.7-4.7,3-7.4,3.6c-2.8,0.6-5.6,0.6-8.2,0.1
							c-2.6-0.5-4.9-1.4-7-2.5c-2.1-1.1-3.9-2.3-5.5-3.5c-1.6-1.3-3.1-2.5-4.3-3.8c-2.5-2.5-4.3-4.8-5.4-6.4c-0.6-0.8-1-1.5-1.3-2
							c-0.3-0.5-0.4-0.7-0.4-0.7s1.1,0.5,2.8,1.5c0.9,0.5,1.9,1.1,3.1,1.7c1.2,0.7,2.5,1.4,4,2.2c1.4,0.8,3,1.6,4.7,2.4
							c1.7,0.8,3.4,1.5,5.2,2.1c1.8,0.6,3.6,1.1,5.4,1.3c1.8,0.2,3.5,0.2,5.1-0.2c1.6-0.3,3.1-1.1,4.6-2c0.7-0.5,1.4-1.1,2.1-1.7
							c0.7-0.6,1.3-1.3,1.9-2c2.5-2.8,4.4-6,6.2-8.9c1.7-2.8,3.1-5.3,4.3-7c0.6-0.8,1.2-1.5,1.7-1.8c0.3-0.2,0.6-0.2,0.7-0.1
							C430.9,545.6,430.9,545.6,430.9,545.6z"/>
					</g>
					<g id="XMLID_27_">
						<path id="XMLID_152_" d="M439.2,564.1c0,0,0,1.2-0.4,3.4c-0.2,1.1-0.5,2.4-0.9,3.8c-0.4,1.5-1,3.1-1.8,4.8
							c-0.8,1.7-1.8,3.5-3,5.4c-1.3,1.8-2.8,3.7-4.6,5.4c-0.9,0.8-1.9,1.7-3,2.4c-0.5,0.4-1.1,0.8-1.6,1.1c-0.6,0.3-1.2,0.7-1.8,1
							c-2.4,1.2-5.1,2.2-7.8,2.7c-0.7,0.2-1.4,0.2-2.1,0.3c-0.7,0-1.4,0.1-2.1,0.1c-0.7,0-1.4,0-2,0l-1,0l-1-0.1
							c-0.7-0.1-1.3-0.2-2-0.3c-0.7-0.1-1.3-0.3-1.9-0.4c-0.6-0.2-1.2-0.3-1.8-0.5c-0.6-0.2-1.2-0.4-1.7-0.6
							c-0.6-0.2-1.1-0.4-1.7-0.6c-0.6-0.2-1.1-0.5-1.6-0.8c-1-0.5-2.1-1-3-1.6c-0.9-0.6-1.8-1.1-2.7-1.7c-0.8-0.6-1.6-1.2-2.4-1.8
							c-1.5-1.1-2.7-2.3-3.8-3.3c-0.5-0.5-1.1-1-1.5-1.5c-0.4-0.5-0.8-0.9-1.2-1.3c-1.4-1.6-2.2-2.6-2.2-2.6s1.2,0.5,3.1,1.3
							c0.5,0.2,1,0.5,1.6,0.7c0.6,0.3,1.2,0.5,1.9,0.8c1.3,0.6,2.8,1.3,4.5,1.9c0.8,0.3,1.6,0.7,2.5,1c0.9,0.3,1.8,0.6,2.7,1
							c0.9,0.4,1.9,0.6,2.8,0.9c0.5,0.1,1,0.3,1.5,0.4c0.5,0.1,1,0.2,1.5,0.3c0.5,0.1,1,0.2,1.5,0.3c0.5,0.1,1,0.2,1.5,0.2
							c1,0.2,2,0.2,3.1,0.3l0.8,0.1l0.8,0c0.5,0,1,0,1.5,0c0.5,0,1-0.1,1.5-0.1c0.5-0.1,1-0.1,1.5-0.2l1.5-0.3
							c0.5-0.1,1-0.3,1.4-0.4l0.7-0.2l0.7-0.3c0.5-0.2,0.9-0.3,1.4-0.6c1.8-0.8,3.6-1.9,5.2-3c1.6-1.2,3.1-2.5,4.5-3.8
							c1.4-1.4,2.6-2.7,3.7-4c2.2-2.6,4-5.1,5.2-6.8c0.6-0.9,1.1-1.6,1.4-2C439.1,564.4,439.2,564.1,439.2,564.1z"/>
					</g>
				</g>
			</g>
		</g>
	</g>
	<g id="XMLID_67_">
		<g id="XMLID_56_">
			<g id="XMLID_78_">
				<g id="XMLID_36_">
					<g id="XMLID_104_">
						<path id="XMLID_59_" d="M13,679.8c0,0,0.3-0.7,0.9-1.9c0.6-1.2,1.4-2.8,2.5-4.8c2.1-3.9,5.1-9,8-14c0.7-1.3,1.4-2.5,2.2-3.8
							c0.7-1.2,1.4-2.5,2-3.6c0.6-1.2,1.2-2.3,1.8-3.4c0.3-0.5,0.5-1.1,0.8-1.6c0.3-0.5,0.5-1,0.7-1.5c0.4-1,0.7-1.9,0.9-2.7
							c0.1-0.4,0.1-0.8,0.2-1.2c0-0.4,0-0.7,0.1-1c-0.1-0.6-0.1-1.1-0.2-1.4c-0.1-0.3-0.2-0.5-0.2-0.5s0.1,0.1,0.4,0.4
							c0.3,0.3,0.5,0.7,0.8,1.4c0.1,0.3,0.2,0.7,0.3,1.1c0.1,0.4,0.1,0.9,0.1,1.3c0,1,0,2-0.2,3.2c-0.2,1.1-0.4,2.4-0.8,3.6
							c-0.4,1.3-0.8,2.6-1.4,3.9c-0.5,1.3-1.1,2.6-1.8,4c-0.7,1.3-1.4,2.6-2.1,3.9c-0.8,1.3-1.5,2.6-2.3,3.8
							c-0.8,1.2-1.6,2.4-2.4,3.5c-1.6,2.3-3.3,4.3-4.8,6c-1.5,1.7-2.8,3-3.7,3.9C13.6,679.3,13,679.8,13,679.8z"/>
					</g>
					<g id="XMLID_46_">
						<path id="XMLID_53_" d="M32.5,638.4c0,0,1.4,0.3,4,0.9c2.6,0.6,6.5,1.2,11.4,2c4.9,0.8,10.9,1.5,17.8,2.2
							c6.9,0.7,14.7,1,23.1,1.1c8.5,0,17.6-0.5,27.2-1.8c9.5-1.3,19.4-3.7,29.1-7.3c2.5-0.9,5.1-1.9,7.7-2.8
							c2.6-0.9,5.2-1.8,7.8-2.7c5.3-1.7,10.6-3.5,16-5c10.8-3.2,21.8-6.3,32.8-9.3c11-3,22.1-5.8,33-8.5c10.9-2.7,21.7-5.2,32.3-7.4
							c2.6-0.5,5.3-1.1,7.9-1.5c1.3-0.2,2.6-0.5,4.1-0.6c0.4,0,0.7-0.1,1.2-0.1l0.3,0l0.5,0l0.5,0l0.6,0l0.9-0.1
							c2.5-0.2,5.1-0.5,7.7-0.6c2.6-0.2,5.1-0.2,7.7-0.2c5.1,0,10,0.4,14.7,1.3c4.7,0.9,9.2,2.1,13.3,3.8c4.1,1.7,7.9,3.7,11.2,6
							c3.3,2.3,6.2,4.8,8.7,7.4c5,5.2,8.3,10.5,10.6,14.9c2.3,4.5,3.6,8.2,4.5,10.8c0.4,1.3,0.7,2.3,0.9,2.9c0.2,0.7,0.3,1,0.3,1
							s-0.1-0.3-0.4-1c-0.3-0.6-0.7-1.6-1.2-2.8c-1.1-2.4-2.9-5.9-5.5-10.1c-2.7-4.2-6.3-9-11.3-13.5c-2.5-2.2-5.4-4.4-8.7-6.3
							c-3.2-1.9-6.8-3.6-10.7-4.9c-3.9-1.3-8.1-2.2-12.5-2.8c-4.4-0.6-9-0.8-13.8-0.6c-2.4,0.1-4.8,0.3-7.2,0.5
							c-2.5,0.3-4.9,0.6-7.5,1l-1,0.1c-0.4,0-0.7,0.1-1.3,0.1l-0.3,0l-0.2,0l0,0c0,0,0,0,0,0l-0.1,0c-0.2,0-0.5,0.1-0.8,0.1
							c-1.2,0.2-2.4,0.4-3.7,0.7c-2.5,0.5-5.1,1.1-7.7,1.7c-10.4,2.4-21,5.2-31.9,7.9c-10.9,2.8-21.9,5.7-32.9,8.7
							c-11,2.9-22,5.9-32.7,9c-10.8,3.1-21.3,6.2-31.3,9.7c-10.4,3.7-20.9,5.6-30.8,6.6c-1.2,0.1-2.5,0.2-3.7,0.3
							c-1.2,0.1-2.4,0.2-3.7,0.2c-2.4,0.2-4.8,0.2-7.1,0.2c-4.7,0-9.2-0.1-13.5-0.3c-8.6-0.5-16.5-1.5-23.4-2.6
							c-6.9-1.1-12.9-2.5-17.7-3.7c-4.9-1.2-8.6-2.3-11.2-3.1C33.8,638.9,32.5,638.4,32.5,638.4z"/>
					</g>
					<g id="XMLID_41_">
						<path id="XMLID_51_" d="M218,683.8l-218.2-4.1l218.3-3.9c2.2,0,4,1.7,4.1,3.9c0,2.2-1.7,4-3.9,4.1
							C218.1,683.8,218,683.8,218,683.8z"/>
					</g>
					<g id="XMLID_42_">
						<path id="XMLID_44_" d="M370.3,658.6c0,0-0.8-1.1-2.4-3.1c-1.6-2-4.1-4.8-7.4-8.1c-1.7-1.7-3.6-3.5-5.7-5.3
							c-2.2-1.9-4.5-3.8-7.2-5.7c-5.3-3.9-11.6-7.7-19-10.6c-7.4-2.9-15.8-4.5-24.7-4.2c-1.1,0.1-2.2,0.2-3.3,0.3
							c-1.1,0.2-2.2,0.3-3.4,0.5l-0.4,0.1l-0.4,0.1l-0.9,0.2c-0.6,0.1-1.2,0.2-1.8,0.3c-1.2,0.2-2.4,0.5-3.6,0.7
							c-1.2,0.2-2.4,0.5-3.6,0.8c-1.2,0.3-2.4,0.5-3.6,0.8c-2.4,0.5-4.8,1.1-7.3,1.7c-9.8,2.4-19.8,5.4-30,8.5
							c-10.1,3.2-20.4,6.7-30.6,10.3c-10.2,3.6-20.4,7.4-30.5,11c-5.1,1.8-10,3.7-15.4,5.1c-5.3,1.4-10.4,2.5-15.5,3.3
							c-10.2,1.7-20.1,2.7-29.5,3.3c-4.7,0.3-9.3,0.6-13.7,0.7c-4.4,0.1-8.7,0.2-12.8,0.2c-8.2,0.1-15.7-0.2-22.4-0.5
							c-6.7-0.3-12.4-0.8-17.2-1.4c-4.8-0.5-8.5-1.2-11-1.8c-0.6-0.1-1.2-0.3-1.6-0.4c-0.5-0.1-0.9-0.2-1.2-0.4
							c-0.6-0.2-0.9-0.4-0.9-0.4s0.3,0.1,1,0.2c0.3,0.1,0.7,0.1,1.2,0.2c0.5,0.1,1,0.2,1.7,0.2c2.5,0.3,6.3,0.5,11,0.6
							c4.7,0.1,10.5,0,17.1-0.1c6.6-0.2,14.1-0.5,22.2-1c8.1-0.5,16.9-1.3,26.1-2.3c4.6-0.5,9.3-1.1,14.2-1.8
							c4.8-0.7,9.7-1.5,14.6-2.5c4.9-1,9.9-2.1,14.8-3.5c4.8-1.4,9.8-3.3,14.8-5.2c10-3.8,20.2-7.6,30.5-11.3
							c10.3-3.6,20.7-7.1,31-10.2c10.3-3.1,20.6-5.7,30.7-8c2.5-0.5,5-1.1,7.5-1.6c2.5-0.5,5-1,7.4-1.3c1.2-0.2,2.4-0.4,3.6-0.5
							c0.6-0.1,1.2-0.2,1.8-0.3l0.9-0.1l0.4-0.1l0.5-0.1c1.3-0.1,2.5-0.2,3.7-0.4c1.2-0.1,2.5-0.1,3.7-0.1c9.9-0.1,19,2.4,26.6,5.9
							c7.7,3.5,14,8,19.1,12.4c5.1,4.4,9.1,8.7,12.2,12.4c3.1,3.7,5.2,6.8,6.6,8.9C369.6,657.4,370.3,658.6,370.3,658.6z"/>
					</g>
				</g>
			</g>
		</g>
		<g id="XMLID_45_">
			<g id="XMLID_47_">
				<g id="XMLID_48_">
					<g id="XMLID_91_">
						<path id="XMLID_62_" d="M727,679.8c0,0-0.6-0.5-1.5-1.4c-0.9-0.9-2.3-2.2-3.7-3.9c-1.5-1.7-3.1-3.7-4.8-6
							c-0.8-1.1-1.6-2.3-2.4-3.5c-0.8-1.2-1.6-2.5-2.3-3.8c-0.7-1.3-1.5-2.6-2.1-3.9c-0.7-1.3-1.3-2.6-1.8-4c-0.5-1.3-1-2.6-1.4-3.9
							c-0.4-1.3-0.6-2.5-0.8-3.6c-0.2-1.1-0.2-2.2-0.2-3.2c0-0.5,0.1-0.9,0.1-1.3c0.1-0.4,0.2-0.8,0.3-1.1c0.3-0.6,0.5-1.1,0.8-1.4
							c0.2-0.3,0.4-0.4,0.4-0.4s-0.1,0.2-0.2,0.5c-0.1,0.3-0.2,0.8-0.2,1.4c0,0.3,0,0.6,0.1,1c0.1,0.4,0.1,0.8,0.2,1.2
							c0.2,0.8,0.5,1.7,0.9,2.7c0.2,0.5,0.4,1,0.7,1.5c0.2,0.5,0.5,1.1,0.8,1.6c0.5,1.1,1.1,2.3,1.8,3.4c0.6,1.2,1.3,2.4,2,3.6
							c0.7,1.2,1.4,2.5,2.2,3.8c2.9,5,5.9,10.1,8,14c1.1,1.9,1.9,3.6,2.5,4.8C726.7,679.1,727,679.8,727,679.8z"/>
					</g>
					<g id="XMLID_87_">
						<path id="XMLID_64_" d="M707.5,638.4c0,0-1.3,0.5-3.9,1.3c-2.6,0.8-6.3,1.9-11.2,3.1c-4.9,1.2-10.8,2.5-17.7,3.7
							c-6.9,1.2-14.8,2.2-23.4,2.6c-4.3,0.2-8.8,0.4-13.5,0.3c-2.3,0-4.7-0.1-7.1-0.2c-1.2-0.1-2.4-0.2-3.7-0.2
							c-1.2-0.1-2.5-0.2-3.7-0.3c-9.9-1-20.4-2.9-30.8-6.6c-10-3.6-20.5-6.6-31.3-9.7c-10.7-3.1-21.7-6.1-32.7-9
							c-11-2.9-22-5.9-32.9-8.7c-10.9-2.7-21.6-5.5-31.9-7.9c-2.6-0.6-5.2-1.2-7.7-1.7c-1.3-0.3-2.5-0.5-3.7-0.7
							c-0.3,0-0.6-0.1-0.8-0.1l-0.1,0c0,0,0,0,0,0l0,0l-0.2,0l-0.3,0c-0.6,0-1,0-1.3-0.1l-1-0.1c-2.6-0.3-5.1-0.7-7.5-1
							c-2.4-0.3-4.8-0.4-7.2-0.5c-4.7-0.2-9.4,0-13.8,0.6c-4.4,0.6-8.6,1.5-12.5,2.8c-3.9,1.3-7.5,3-10.7,4.9
							c-3.3,1.9-6.1,4.1-8.7,6.3c-5,4.5-8.7,9.3-11.3,13.5c-2.6,4.2-4.4,7.7-5.5,10.1c-0.6,1.2-1,2.2-1.2,2.8c-0.3,0.6-0.4,1-0.4,1
							s0.1-0.3,0.3-1c0.2-0.7,0.5-1.7,0.9-2.9c0.9-2.5,2.2-6.3,4.5-10.8c2.3-4.5,5.6-9.8,10.6-14.9c2.5-2.6,5.4-5.1,8.7-7.4
							c3.3-2.3,7.1-4.3,11.2-6c4.1-1.7,8.6-3,13.3-3.8c4.7-0.8,9.7-1.2,14.7-1.3c2.5,0,5.1,0.1,7.7,0.2c2.6,0.2,5.2,0.4,7.7,0.6
							l0.9,0.1l0.6,0l0.5,0l0.5,0l0.3,0c0.5,0,0.8,0.1,1.2,0.1c1.4,0.2,2.7,0.4,4.1,0.6c2.6,0.5,5.3,1,7.9,1.5
							c10.5,2.2,21.3,4.7,32.3,7.4c10.9,2.7,22,5.5,33,8.5c11,3,22,6.1,32.8,9.3c5.4,1.6,10.7,3.3,16,5c2.6,0.9,5.2,1.8,7.8,2.7
							c2.6,0.9,5.2,1.9,7.7,2.8c9.7,3.6,19.6,6,29.1,7.3c9.5,1.3,18.7,1.8,27.2,1.8c8.5,0,16.3-0.4,23.1-1.1
							c6.9-0.7,12.9-1.4,17.8-2.2c4.9-0.8,8.8-1.5,11.4-2C706.1,638.7,707.5,638.4,707.5,638.4z"/>
					</g>
					<g id="XMLID_72_">
						<path id="XMLID_66_" d="M522,675.8l218.3,3.9L522,683.8c-2.2,0-4-1.7-4.1-3.9c0-2.2,1.7-4,3.9-4.1
							C521.9,675.8,522,675.8,522,675.8z"/>
					</g>
					<g id="XMLID_58_">
						<path id="XMLID_153_" d="M369.7,658.6c0,0,0.7-1.2,2.1-3.3c1.4-2.1,3.6-5.2,6.6-8.9c3.1-3.7,7-8,12.2-12.4
							c5.1-4.4,11.4-8.9,19.1-12.4c7.6-3.5,16.8-6,26.6-5.9c1.2,0,2.5,0.1,3.7,0.1c1.2,0.1,2.5,0.2,3.7,0.4l0.5,0.1l0.4,0.1l0.9,0.1
							c0.6,0.1,1.2,0.2,1.8,0.3c1.2,0.2,2.4,0.4,3.6,0.5c2.4,0.3,4.9,0.9,7.4,1.3c2.5,0.4,5,1,7.5,1.6c10.1,2.2,20.4,4.8,30.7,8
							c10.3,3.1,20.7,6.6,31,10.2c10.3,3.7,20.5,7.5,30.5,11.3c5,1.8,10,3.8,14.8,5.2c4.9,1.4,9.8,2.5,14.8,3.5
							c4.9,1,9.8,1.8,14.6,2.5c4.8,0.7,9.5,1.3,14.2,1.8c9.2,1,18,1.8,26.1,2.3c8.1,0.5,15.6,0.9,22.2,1c6.6,0.2,12.4,0.2,17.1,0.1
							c4.7-0.1,8.5-0.3,11-0.6c0.6-0.1,1.2-0.2,1.7-0.2c0.5-0.1,0.9-0.1,1.2-0.2c0.6-0.2,1-0.2,1-0.2s-0.3,0.1-0.9,0.4
							c-0.3,0.1-0.7,0.2-1.2,0.4c-0.5,0.1-1,0.3-1.6,0.4c-2.5,0.6-6.2,1.2-11,1.8c-4.8,0.5-10.5,1.1-17.2,1.4
							c-6.7,0.3-14.2,0.6-22.4,0.5c-4.1,0-8.4-0.1-12.8-0.2c-4.4-0.1-9-0.4-13.7-0.7c-9.4-0.7-19.3-1.6-29.5-3.3
							c-5.1-0.9-10.3-1.9-15.5-3.3c-5.3-1.4-10.3-3.3-15.4-5.1c-10.1-3.6-20.3-7.4-30.5-11c-10.2-3.7-20.5-7.1-30.6-10.3
							c-10.2-3.2-20.2-6.1-30-8.5c-2.5-0.6-4.9-1.2-7.3-1.7c-1.2-0.3-2.4-0.5-3.6-0.8c-1.2-0.3-2.4-0.5-3.6-0.8
							c-1.2-0.2-2.4-0.5-3.6-0.7c-0.6-0.1-1.2-0.2-1.8-0.3l-0.9-0.2l-0.4-0.1l-0.4-0.1c-1.1-0.2-2.2-0.3-3.4-0.5
							c-1.1-0.1-2.2-0.2-3.3-0.3c-8.9-0.4-17.3,1.3-24.7,4.2c-7.4,2.9-13.7,6.7-19,10.6c-2.6,1.9-5,3.9-7.2,5.7
							c-2.2,1.9-4.1,3.7-5.7,5.3c-3.3,3.4-5.8,6.1-7.4,8.1C370.6,657.5,369.7,658.6,369.7,658.6z"/>
					</g>
				</g>
			</g>
		</g>
	</g>
	<g id="XMLID_32_">
		<path id="XMLID_33_" d="M291.3,682.6h-32v12.5c0.8-0.4,2.2-1.1,4-2.1c1.8-1,3.6-1.8,5.4-2.2s4-0.7,6.5-0.7c3.2,0,6.3,1,9.4,3
			c3,2,4.5,4.7,4.5,8.1c0,2.3-0.8,4.3-2.3,6c-1.5,1.7-3.3,3-5.5,3.9c-2.1,0.8-4,1.3-5.5,1.3l11.3,13.8l-6.2,4.5l-17.5-20.7l3.2-6.7
			c1.7,0.5,3.5,0.7,5.4,0.7c2.9,0,5.3-0.7,7.1-2.1c1.8-1.4,2.7-3.4,2.7-6c0-2.6-1.9-3.9-5.6-3.9c-2.4,0-5,1.1-7.7,3.2
			c-2.7,2.2-4.9,4.7-6.8,7.6s-2.7,5.3-2.7,7.2v20.5l-8.4-3.8v-44.1h-6.2v-5.9h5.9c0-5.2-0.5-9.7-1.5-13.6c-1-3.9-2.2-7.1-3.6-9.7
			s-2.9-4.9-4.7-7.2c-1.7-2.2-2.7-3.5-2.8-3.8h9.9c0.5,0.4,1.2,1.3,2.3,2.7c1.1,1.4,2.3,3.4,3.6,6.1c1.4,2.7,2.6,6.3,3.6,10.7
			s1.6,9.3,1.6,14.7h32.2V682.6z"/>
		<path id="XMLID_35_" d="M340.1,682.6h-49.4v-5.9h49.4V682.6z M336,700.1c0,2.1-1.2,4.3-3.6,6.5s-4.4,3.8-6,4.5l-7.3-8.3
			c2.7-0.3,5-1.2,6.9-3c1.9-1.7,2.8-3.4,2.8-5.1c0-0.7-0.5-1.5-1.6-2.5c-1.1-1-2.5-1.4-4.2-1.4c-2.1,0-4.5,1-7.2,2.9
			c-2.7,2-4.9,4.5-6.8,7.6c-1.9,3.1-2.8,6.2-2.8,9.3v20.7l-9.4-4.9v-36.1h9.5v3.7c0.3-0.3,1.2-0.9,2.9-1.8c1.7-0.9,3.6-1.8,5.8-2.6
			c2.2-0.8,4.4-1.1,6.7-1.1c1.9,0,4,0.5,6.2,1.4s4.2,2.3,5.8,4C335.2,695.8,336,697.8,336,700.1z"/>
		<path id="XMLID_154_" d="M387.4,682.6h-32.5v7.8c0.2,0,0.3,0.1,0.4,0.2c0.1,0.1,0.2,0.2,0.3,0.2c-0.1,0,0.6-0.2,2-0.6
			c1.4-0.4,3-0.7,4.8-1.1c1.8-0.3,3.6-0.5,5.3-0.5c3.9,0,7,0.5,9.2,1.6s3.9,2.6,4.9,4.5c1,2,1.6,4.1,1.8,6.6c0.2,2.4,0.3,5.8,0.3,10
			v18.8c-2.5-1-4.3-1.7-5.4-2.1c-1.1-0.5-1.9-0.8-2.4-1c0-1-0.2-1.7-0.6-2c-1.1,0.6-2.3,1.3-3.6,2s-3.1,1.4-5.2,1.9
			c-2.1,0.6-4.7,0.8-7.7,0.8c-2.8,0-5.6-0.5-8.3-1.6c-2.7-1-4.9-2.5-6.6-4.5c-1.7-1.9-2.5-4.1-2.5-6.6c0-2.3,1.1-4.7,3.2-7.2
			c2.1-2.5,4.9-4.6,8.5-6.2c3.5-1.6,7.4-2.5,11.6-2.5c2.3,0,4.4,0.3,6.5,1c2.1,0.7,3.6,1.4,4.7,2.2v-4.5c-1.4-1.7-2.7-2.9-3.9-3.5
			c-1.2-0.6-3.2-0.9-5.8-0.9c-3.4,0.1-6.1,0.4-8.1,0.8c-2,0.4-4.1,1.1-6.3,2c-2.3,0.9-4.2,1.6-5.7,2.2v-3.6c0.2-0.2,0.6-0.5,1-0.8
			c0.4-0.4,0.7-0.6,0.9-0.8c0.1-0.2,0.2-0.3,0.3-0.3v-12.6h-10v-5.9h48.9V682.6z M376.2,713.5c0-1.5-1.7-2.7-5-3.7
			c-3.4-1-5.7-1.5-7.1-1.5c-3.5,0-6.8,0.7-9.7,2.2c-2.9,1.5-5.2,3.2-6.8,5.2c-1.7,2-2.5,3.6-2.5,4.9c0.4,1.3,1.4,2.3,3,2.8
			c1.6,0.5,3.3,0.8,5.1,0.8c3.3,0,6.4-0.4,9.2-1.3s5.3-1.9,7.4-3.2c2.1-1.3,3.7-2.5,4.9-3.7C375.6,714.7,376.2,713.9,376.2,713.5z"
			/>
		<path id="XMLID_157_" d="M439.7,682.6h-52.5v-5.9h52.5V682.6z M429.2,704c0-7.8-3.7-11.7-11.1-11.7c-2.1,0-4.4,0.6-6.6,1.9
			c-2.3,1.3-4.3,3-6.1,5.3c-1.8,2.2-3.2,4.9-4.3,8c-1.1,3.1-1.6,6.3-1.6,9.6v14.2l-8-4.2v-36.7h8.4v5.8c0.7-0.5,1.8-1.4,3.4-2.6
			c1.6-1.2,3.5-2.4,5.8-3.4c2.3-1,4.7-1.6,7.3-1.6c2.6,0,5,0.6,7.4,1.7c2.4,1.1,4.5,2.7,6.3,4.6c1.9,2,3.3,4.3,4.4,7
			s1.6,5.6,1.6,8.6c0,3.5-0.7,7-2.2,10.6c-1.5,3.6-3.9,7.2-7.1,10.7l-9.4-5.9c0.6-0.8,1.7-1.9,3.3-3.4c1.6-1.5,3-3,4.2-4.6
			c1.2-1.5,2.2-3.5,3.1-5.8C428.8,709.8,429.2,707.1,429.2,704z"/>
		<path id="XMLID_160_" d="M482.7,682.6h-24.7v39.3c0,1.1,0.4,2.2,1.2,3.3c0.8,1.1,1.7,1.6,2.6,1.6c4.8,0,7.3-5,7.3-15l9.8,5.6
			c-1.6,3.5-3.8,6.5-6.5,8.9c-2.8,2.4-6.4,3.5-10.9,3.5c-2.2,0-4.3-0.6-6.2-1.8c-1.9-1.2-3.4-2.6-4.5-4.4c-1.1-1.8-1.7-3.6-1.7-5.4
			v-35.6H439v-5.9h10.2v-16.4l8.8,6.1v10.3h24.7V682.6z"/>
		<path id="XMLID_162_" d="M499,671.6c-0.1,0.1-0.5,0.2-1.1,0.2c-0.5,0-1-0.1-1.4-0.2c-2.3-4.6-3.8-7.4-4.5-8.4
			c-0.7-1-1.6-1.6-2.7-1.9c-1.1-0.3-2.1-0.6-3.1-0.9c-1-0.3-1.7-0.9-2.3-1.9c-0.1-0.2-0.4-1-0.7-2.3c-0.4-1.3-1.1-2.9-2.1-4.6v-1.1
			h1.9c3.8,1.2,6.5,2.2,8.1,3.2c1.6,1,2.6,1.9,3.1,2.8c0.4,0.9,1.1,2.7,1.9,5.5c0.8,2.8,1.8,5.3,2.9,7.5c0,0.3,0.1,0.6,0.1,0.8
			C499,670.5,499,670.9,499,671.6z M501.9,682.6H482v-5.9h19.9V682.6z M496.3,730.8l-8.2-4.5v-37.7h8.2V730.8z"/>
	</g>
</g>
</svg>
